inDegrees=no
num_controls=7
num_derivatives=13
num_iterations=49
num_multipliers=7
num_parameters=0
num_slacks=7
num_states=26
objective=0.471675
objective_accelerations=0.059567
objective_balance=0.000938
objective_effort=0.016477
objective_height=0.385596
objective_ligament=0.009097
solver_duration=761.659428
status=Solve_Succeeded
success=true
DataType=double
version=3
OpenSimVersion=4.5
endheader
time	/jointset/ground_pelvis/pelvis_tilt/value	/jointset/ground_pelvis/pelvis_tx/value	/jointset/ground_pelvis/pelvis_ty/value	/jointset/hip_l/hip_flexion_l/value	/jointset/hip_l/hip_adduction_l/value	/jointset/hip_l/hip_rotation_l/value	/jointset/back/lumbar_extension/value	/jointset/patellofemoral_l/patellar_flexion_l/value	/jointset/knee_l/knee_flexion_l/value	/jointset/knee_l/knee_adduction_l/value	/jointset/knee_l/knee_rotation_l/value	/jointset/ankle_l/ankle_angle_l/value	/jointset/subtalar_l/subtalar_angle_l/value	/jointset/ground_pelvis/pelvis_tilt/speed	/jointset/ground_pelvis/pelvis_tx/speed	/jointset/ground_pelvis/pelvis_ty/speed	/jointset/hip_l/hip_flexion_l/speed	/jointset/hip_l/hip_adduction_l/speed	/jointset/hip_l/hip_rotation_l/speed	/jointset/back/lumbar_extension/speed	/jointset/patellofemoral_l/patellar_flexion_l/speed	/jointset/knee_l/knee_flexion_l/speed	/jointset/knee_l/knee_adduction_l/speed	/jointset/knee_l/knee_rotation_l/speed	/jointset/ankle_l/ankle_angle_l/speed	/jointset/subtalar_l/subtalar_angle_l/speed	/forceset/tau_hip_flexion_l	/forceset/tau_hip_adduction_l	/forceset/tau_hip_rotation_l	/forceset/tau_knee_flexion_l	/forceset/tau_ankle_angle_l	/forceset/tau_subtalar_angle_l	/forceset/tau_lumbar_extension	lambda_cid13_p0	lambda_cid13_p1	lambda_cid13_p2	lambda_cid13_p3	lambda_cid13_p4	lambda_cid13_p5	lambda_cid14_p0	/jointset/ground_pelvis/pelvis_tilt/accel	/jointset/ground_pelvis/pelvis_tx/accel	/jointset/ground_pelvis/pelvis_ty/accel	/jointset/hip_l/hip_flexion_l/accel	/jointset/hip_l/hip_adduction_l/accel	/jointset/hip_l/hip_rotation_l/accel	/jointset/back/lumbar_extension/accel	/jointset/patellofemoral_l/patellar_flexion_l/accel	/jointset/knee_l/knee_flexion_l/accel	/jointset/knee_l/knee_adduction_l/accel	/jointset/knee_l/knee_rotation_l/accel	/jointset/ankle_l/ankle_angle_l/accel	/jointset/subtalar_l/subtalar_angle_l/accel	gamma_cid13_p0	gamma_cid13_p1	gamma_cid13_p2	gamma_cid13_p3	gamma_cid13_p4	gamma_cid13_p5	gamma_cid14_p0
0.5	-0.2755682311848183	0.00285444407307804	0.7855359252245663	1.018448143266576	-0.3574683903518639	-0.0350691971447826	-0.4034128655581039	0.8384105835431334	0.8384105835431767	-0.04051726360905725	-0.1743695691199473	0.2137958889537298	0.1318354605537397	-0.9216523317499363	-0.2382113495475413	-0.4632025762448352	2.448120740150836	0.02728048501450679	0.5173042243561452	-0.2939167750486518	1.672889606732778	1.672889606732733	0.2094629362835805	0.002615619903257722	0.2778592894233001	0.1281447599470285	-0.1246293081249023	0.0634648236671812	0.0006189519794746745	-0.1723793193741382	0.03791600449866678	-0.02022519411580907	0.1283512530392002	-14.83652305461416	13.81652058641295	-5.265041310008131	-0.9675963175484807	-441.0427706760541	-30.4639840983373	-9.484902933798375	0.3705504014999553	0.4256617410400285	-0.3790608104573872	-1.287978780879442	0.1985576899488685	-0.5172232692243525	1.443619072225316	-1.353913456646422	-1.353913456646424	-0.3150080246913112	0.01654730037143777	-0.571624280881606	0.101749510842389	-3.086087492170261e-07	-5.544538874458998e-07	2.688273840482662e-06	7.929424246027237e-08	-6.554493963398701e-07	-3.408659723144874e-07	-4.418260799478521e-07
0.51	-0.2847641360928826	0.0004939683571188347	0.7808860471036515	1.04286025521553	-0.3571875014295312	-0.02992016206163452	-0.406280649930235	0.85506889112617	0.8550688911261678	-0.03844345491375398	-0.1743431002417758	0.216544922844667	0.1331193378071047	-0.917405044671	-0.2338557552622397	-0.4666704645189891	2.433972603853552	0.02889401156143404	0.512436917733687	-0.2796267937329642	1.658539105239474	1.658539105239447	0.2053065959540715	0.002663754485053084	0.2719082422253753	0.1286106395065061	-0.1298400561140305	0.06451327406304862	8.807448338619107e-05	-0.1735400268714758	0.03728866554951134	-0.0195775121034551	0.1321373649716442	-15.16784969299415	13.72611136971081	-5.402393370622673	-0.9774146109086659	-443.9657174249584	-30.41624550599965	-8.783914337295359	0.47031906134042	0.4447317892600007	-0.3153937268376837	-1.527640008311134	0.1419343389416002	-0.4817637889241803	1.423683508115337	-1.510451530302748	-1.510451530300093	-0.4648001504620413	-0.002698657207474853	-0.6127622016690851	0.01575625191892605	-3.067409899886182e-07	-5.14110279670628e-07	2.696836097375434e-06	8.441003759720839e-08	-6.356541206944583e-07	-2.604264254037806e-07	-4.431765829246505e-07
0.52	-0.2939138678901117	-0.001822106712590863	0.776204541921806	1.067121004010682	-0.3568906404013499	-0.02482185593074465	-0.4090051353198335	0.8715767270873443	0.8715767270873046	-0.03641098024440773	-0.1743164790566586	0.2192332628111397	0.1344072236707485	-0.9124177095820428	-0.2293312202976399	-0.4695279884308722	2.417848109389932	0.03047490618343116	0.5071584339045236	-0.2652569785422615	1.642795282360957	1.642795282360948	0.2011961310893139	0.002646081295207476	0.2657205045306047	0.1289464820027248	-0.1350508041031104	0.06556172445894098	-0.0004428030126021407	-0.1747007343688082	0.03666132660036032	-0.01892983009106914	0.1359234769041328	-15.49818750557369	13.63164229767481	-5.534657370486005	-1.010175185152903	-446.8803128423122	-30.44401093721212	-8.089137505717073	0.518560003504313	0.4594498768996144	-0.2569879380032329	-1.683250414146701	0.192031304962805	-0.5994587105654186	1.459585847228452	-1.632577733688923	-1.632577733688916	-0.3058329317410304	0.003385746043114652	-0.6189623802508687	0.07574209819049688	-3.065183011281111e-07	-5.734591395615213e-07	2.68347129697118e-06	7.554160912180272e-08	-6.227948050963365e-07	-2.119662823411384e-07	-4.530257668838719e-07
0.53	-0.3030101730573789	-0.004092141858175107	0.7714975427985969	1.091210852183623	-0.3565782557591629	-0.01977836808064585	-0.411585657279711	0.8879202654687873	0.8879202654687497	-0.03441956160375702	-0.1742906141285768	0.2218585638934391	0.1356976493997732	-0.9067286480276083	-0.2246520294330364	-0.4717660467155329	2.399805369658073	0.03199624602859184	0.5014878168635756	-0.2508518647960095	1.62568853807553	1.625688538075532	0.1970876814965018	0.002522657084702303	0.2593059952552423	0.1291163989372077	-0.1401127694991703	0.06639120045618768	-0.0009210529850361636	-0.176147425619666	0.03631703814656785	-0.01843600900647112	0.1395645336892044	-15.75577693552819	13.60465413828538	-5.692983256140685	-1.053707485365636	-449.8736088734238	-30.40447975566382	-7.420730278135663	0.6112397180960309	0.4757347756435683	-0.1914695575209529	-1.912261915319967	0.1310138038853751	-0.5589709852833844	1.430306434079519	-1.783209513739296	-1.783209513737678	-0.4633945674333171	-0.02033096290512533	-0.6577894377901197	-0.01594435156851485	-3.024726931474816e-07	-5.57815526813908e-07	2.663905859094615e-06	7.654276831612963e-08	-6.023676854537716e-07	-1.397990813798015e-07	-4.529490643310961e-07
